<svg xmlns="http://www.w3.org/2000/svg" xmlns:xlink="http://www.w3.org/1999/xlink" xmlns:lucid="lucid" width="1760" height="1360"><g transform="translate(0 0)" lucid:page-tab-id="0_0"><path d="M0 0h1760v1360H0z" fill="#fff"/><path d="M453.15 76c0-4.42 3.58-8 8-8h836.75c4.4 0 8 3.58 8 8v25.16c0 4.4-3.6 8-8 8H461.15c-4.42 0-8-3.6-8-8z" stroke="#000" stroke-opacity="0" stroke-width="2" fill="#fff" fill-opacity="0"/><use xlink:href="#a" transform="matrix(1,0,0,1,457.1465527853429,71.99999999994924) translate(287.7427160493827 25.782777777777778)"/><use xlink:href="#b" transform="matrix(1,0,0,1,457.1465527853429,71.99999999994924) translate(383.5995061728395 25.782777777777778)"/><use xlink:href="#c" transform="matrix(1,0,0,1,457.1465527853429,71.99999999994924) translate(432.98469135802463 25.782777777777778)"/><use xlink:href="#d" transform="matrix(1,0,0,1,457.1465527853429,71.99999999994924) translate(496.93777777777774 25.782777777777778)"/><path d="M628.64 107.8h505.86M628.66 107.8h-1.02M1134.47 107.8h1.03" stroke="#a9afb8" stroke-width="2" fill="none"/><path d="M453.15 117.16c0-4.42 3.58-8 8-8h837.7c4.42 0 8 3.58 8 8V120c0 4.42-3.58 8-8 8h-837.7c-4.42 0-8-3.58-8-8z" stroke="#000" stroke-opacity="0" stroke-width="2" fill="#fff" fill-opacity="0"/><use xlink:href="#e" transform="matrix(1,0,0,1,457.1465527853434,113.15522395684805) translate(276.2575823045268 14.917037037037037)"/><use xlink:href="#f" transform="matrix(1,0,0,1,457.1465527853434,113.15522395684805) translate(324.61087448559675 14.917037037037037)"/><use xlink:href="#g" transform="matrix(1,0,0,1,457.1465527853434,113.15522395684805) translate(368.7576851851852 14.917037037037037)"/><use xlink:href="#h" transform="matrix(1,0,0,1,457.1465527853434,113.15522395684805) translate(429.77291152263376 14.917037037037037)"/><use xlink:href="#i" transform="matrix(1,0,0,1,457.1465527853434,113.15522395684805) translate(442.22239711934157 14.917037037037037)"/><use xlink:href="#j" transform="matrix(1,0,0,1,457.1465527853434,113.15522395684805) translate(516.8768209876544 14.917037037037037)"/><use xlink:href="#k" transform="matrix(1,0,0,1,457.1465527853434,113.15522395684805) translate(542.3706481481481 14.917037037037037)"/><path d="M640 547c0-4.42 3.58-8 8-8h484c4.42 0 8 3.58 8 8v216c0 4.42-3.58 8-8 8H648c-4.42 0-8-3.58-8-8z" fill="#fff"/><path d="M640 547c0-4.42 3.58-8 8-8h484c4.42 0 8 3.58 8 8v216c0 4.42-3.58 8-8 8H648c-4.42 0-8-3.58-8-8zM640 579h500M807.52 579v192M920 579v192" stroke="#333" fill="none"/><use xlink:href="#l" transform="matrix(1,0,0,1,650,539) translate(196.575 23.6)"/><use xlink:href="#m" transform="matrix(1,0,0,1,645,581.5) translate(32.599999999999994 17.1)"/><use xlink:href="#n" transform="matrix(1,0,0,1,645,581.5) translate(97.4 17.1)"/><use xlink:href="#o" transform="matrix(1,0,0,1,812.5194244746712,581.5) translate(44.525 17.1)"/><use xlink:href="#p" transform="matrix(1,0,0,1,925,581.5) translate(82.075 17.1)"/><use xlink:href="#q" transform="matrix(1,0,0,1,645,613.5) translate(50.05 17.1)"/><use xlink:href="#r" transform="matrix(1,0,0,1,645,613.5) translate(80.05 17.1)"/><use xlink:href="#s" transform="matrix(1,0,0,1,812.5194244746712,613.5) translate(29.025 17.1)"/><use xlink:href="#t" transform="matrix(1,0,0,1,925,613.5) translate(60.099999999999994 17.1)"/><use xlink:href="#q" transform="matrix(1,0,0,1,645,645.5) translate(50.05 17.1)"/><use xlink:href="#r" transform="matrix(1,0,0,1,645,645.5) translate(80.05 17.1)"/><use xlink:href="#u" transform="matrix(1,0,0,1,812.5194244746712,645.5) translate(17.575000000000003 17.1)"/><use xlink:href="#v" transform="matrix(1,0,0,1,925,645.5) translate(60.099999999999994 17.1)"/><use xlink:href="#w" transform="matrix(1,0,0,1,645,677.5) translate(50.05 17.1)"/><use xlink:href="#x" transform="matrix(1,0,0,1,645,677.5) translate(80.05 17.1)"/><use xlink:href="#y" transform="matrix(1,0,0,1,812.5194244746712,677.5) translate(0 17.1)"/><use xlink:href="#z" transform="matrix(1,0,0,1,925,677.5) translate(87.5 14.4)"/><use xlink:href="#w" transform="matrix(1,0,0,1,645,709.5) translate(50.05 17.1)"/><use xlink:href="#x" transform="matrix(1,0,0,1,645,709.5) translate(80.05 17.1)"/><use xlink:href="#A" transform="matrix(1,0,0,1,812.5194244746712,709.5) translate(0 17.1)"/><use xlink:href="#B" transform="matrix(1,0,0,1,925,709.5) translate(60.775 14.4)"/><use xlink:href="#w" transform="matrix(1,0,0,1,645,741.5) translate(50.05 17.1)"/><use xlink:href="#x" transform="matrix(1,0,0,1,645,741.5) translate(80.05 17.1)"/><use xlink:href="#C" transform="matrix(1,0,0,1,812.5194244746712,741.5) translate(0 17.1)"/><use xlink:href="#D" transform="matrix(1,0,0,1,925,741.5) translate(65.1 14.4)"/><path d="M620 989.87c0-4.42 3.58-8 8-8h484c4.42 0 8 3.58 8 8v280c0 4.42-3.58 8-8 8H628c-4.42 0-8-3.58-8-8z" fill="#fff"/><path d="M620 989.87c0-4.42 3.58-8 8-8h484c4.42 0 8 3.58 8 8v280c0 4.42-3.58 8-8 8H628c-4.42 0-8-3.58-8-8zM620 1021.87h500M754.44 1021.87v256M900 1021.87v256" stroke="#333" fill="none"/><use xlink:href="#E" transform="matrix(1,0,0,1,630,981.873075834147) translate(204.525 23.6)"/><use xlink:href="#m" transform="matrix(1,0,0,1,625,1024.3730758341471) translate(16.099999999999994 17.1)"/><use xlink:href="#n" transform="matrix(1,0,0,1,625,1024.3730758341471) translate(80.9 17.1)"/><use xlink:href="#o" transform="matrix(1,0,0,1,759.4415471412137,1024.3730758341471) translate(61.025 17.1)"/><use xlink:href="#p" transform="matrix(1,0,0,1,905,1024.3730758341471) translate(82.075 17.1)"/><use xlink:href="#q" transform="matrix(1,0,0,1,625,1056.3730758341471) translate(33.55 17.1)"/><use xlink:href="#r" transform="matrix(1,0,0,1,625,1056.3730758341471) translate(63.55 17.1)"/><use xlink:href="#s" transform="matrix(1,0,0,1,759.4415471412137,1056.3730758341471) translate(45.525 17.1)"/><use xlink:href="#F" transform="matrix(1,0,0,1,905,1056.3730758341471) translate(55.099999999999994 17.1)"/><use xlink:href="#q" transform="matrix(1,0,0,1,625,1088.3730758341471) translate(33.55 17.1)"/><use xlink:href="#r" transform="matrix(1,0,0,1,625,1088.3730758341471) translate(63.55 17.1)"/><use xlink:href="#G" transform="matrix(1,0,0,1,759.4415471412137,1088.3730758341471) translate(45.025 17.1)"/><use xlink:href="#v" transform="matrix(1,0,0,1,905,1088.3730758341471) translate(60.099999999999994 17.1)"/><use xlink:href="#w" transform="matrix(1,0,0,1,625,1120.3730758341471) translate(33.55 17.1)"/><use xlink:href="#x" transform="matrix(1,0,0,1,625,1120.3730758341471) translate(63.55 17.1)"/><use xlink:href="#H" transform="matrix(1,0,0,1,759.4415471412137,1120.3730758341471) translate(0 17.1)"/><use xlink:href="#z" transform="matrix(1,0,0,1,905,1120.3730758341471) translate(87.5 14.4)"/><use xlink:href="#w" transform="matrix(1,0,0,1,625,1152.3730758341471) translate(1.5749999999999957 17.1)"/><use xlink:href="#I" transform="matrix(1,0,0,1,625,1152.3730758341471) translate(31.574999999999996 17.1)"/><use xlink:href="#J" transform="matrix(1,0,0,1,625,1152.3730758341471) translate(69.475 17.1)"/><use xlink:href="#K" transform="matrix(1,0,0,1,759.4415471412137,1152.3730758341471) translate(0 17.1)"/><use xlink:href="#L" transform="matrix(1,0,0,1,905,1152.3730758341471) translate(77.55 14.4)"/><use xlink:href="#w" transform="matrix(1,0,0,1,625,1184.3730758341471) translate(33.55 17.1)"/><use xlink:href="#x" transform="matrix(1,0,0,1,625,1184.3730758341471) translate(63.55 17.1)"/><use xlink:href="#M" transform="matrix(1,0,0,1,759.4415471412137,1184.3730758341471) translate(0 17.1)"/><use xlink:href="#N" transform="matrix(1,0,0,1,905,1184.3730758341471) translate(55.099999999999994 14.4)"/><use xlink:href="#w" transform="matrix(1,0,0,1,625,1216.3730758341471) translate(33.55 17.1)"/><use xlink:href="#x" transform="matrix(1,0,0,1,625,1216.3730758341471) translate(63.55 17.1)"/><use xlink:href="#O" transform="matrix(1,0,0,1,759.4415471412137,1216.3730758341471) translate(0 17.1)"/><use xlink:href="#L" transform="matrix(1,0,0,1,905,1216.3730758341471) translate(77.55 14.4)"/><use xlink:href="#w" transform="matrix(1,0,0,1,625,1248.3730758341471) translate(33.55 17.1)"/><use xlink:href="#x" transform="matrix(1,0,0,1,625,1248.3730758341471) translate(63.55 17.1)"/><use xlink:href="#P" transform="matrix(1,0,0,1,759.4415471412137,1248.3730758341471) translate(0 17.1)"/><use xlink:href="#Q" transform="matrix(1,0,0,1,905,1248.3730758341471) translate(78.025 14.4)"/><path d="M40 626.37c0-4.4 3.58-8 8-8h484c4.42 0 8 3.6 8 8v289c0 4.42-3.58 8-8 8H48c-4.42 0-8-3.58-8-8z" fill="#fff"/><path d="M40 626.37c0-4.4 3.58-8 8-8h484c4.42 0 8 3.6 8 8v289c0 4.42-3.58 8-8 8H48c-4.42 0-8-3.58-8-8zM40 658.37h500M100 658.37v265M320 658.37v265" stroke="#333" fill="none"/><use xlink:href="#R" transform="matrix(1,0,0,1,50,618.3749999999999) translate(218.55 23.6)"/><use xlink:href="#S" transform="matrix(1,0,0,1,45,660.8749999999999) translate(-4.900000000000002 16.799999999999997)"/><use xlink:href="#n" transform="matrix(1,0,0,1,45,660.8749999999999) translate(11 38.4)"/><use xlink:href="#o" transform="matrix(1,0,0,1,105,660.8749999999999) translate(98.025 27.6)"/><use xlink:href="#p" transform="matrix(1,0,0,1,325,660.8749999999999) translate(82.075 27.6)"/><use xlink:href="#T" transform="matrix(1,0,0,1,45,713.8749999999999) translate(12.5 16.799999999999997)"/><use xlink:href="#r" transform="matrix(1,0,0,1,45,713.8749999999999) translate(11.05 38.4)"/><use xlink:href="#U" transform="matrix(1,0,0,1,105,713.8749999999999) translate(60.55 27.6)"/><use xlink:href="#V" transform="matrix(1,0,0,1,325,713.8749999999999) translate(77.55 27.6)"/><use xlink:href="#T" transform="matrix(1,0,0,1,45,766.8749999999999) translate(12.5 16.799999999999997)"/><use xlink:href="#r" transform="matrix(1,0,0,1,45,766.8749999999999) translate(11.05 38.4)"/><use xlink:href="#W" transform="matrix(1,0,0,1,105,766.8749999999999) translate(57.099999999999994 27.6)"/><use xlink:href="#X" transform="matrix(1,0,0,1,325,766.8749999999999) translate(87.5 27.6)"/><use xlink:href="#Y" transform="matrix(1,0,0,1,45,819.8749999999999) translate(-2.4499999999999993 16.799999999999997)"/><use xlink:href="#Z" transform="matrix(1,0,0,1,45,819.8749999999999) translate(11 38.4)"/><use xlink:href="#aa" transform="matrix(1,0,0,1,105,819.8749999999999) translate(0 27.6)"/><use xlink:href="#ab" transform="matrix(1,0,0,1,325,819.8749999999999) translate(0 27.6)"/><use xlink:href="#ac" transform="matrix(1,0,0,1,325,819.8749999999999) translate(96.9 27.6)"/><use xlink:href="#Y" transform="matrix(1,0,0,1,45,872.8749999999999) translate(-2.4499999999999993 16.799999999999997)"/><use xlink:href="#Z" transform="matrix(1,0,0,1,45,872.8749999999999) translate(11 38.4)"/><use xlink:href="#ad" transform="matrix(1,0,0,1,105,872.8749999999999) translate(0 27.6)"/><use xlink:href="#ab" transform="matrix(1,0,0,1,325,872.8749999999999) translate(0 27.6)"/><use xlink:href="#ae" transform="matrix(1,0,0,1,325,872.8749999999999) translate(96.9 27.6)"/><path d="M1220 626.37c0-4.4 3.58-8 8-8h484c4.42 0 8 3.6 8 8v248c0 4.42-3.58 8-8 8h-484c-4.42 0-8-3.58-8-8z" fill="#fff"/><path d="M1220 626.37c0-4.4 3.58-8 8-8h484c4.42 0 8 3.6 8 8v248c0 4.42-3.58 8-8 8h-484c-4.42 0-8-3.58-8-8zM1220 658.37h500M1370.34 658.37v224M1500 658.37v224" stroke="#333" fill="none"/><use xlink:href="#af" transform="matrix(1,0,0,1,1230,618.3749999999999) translate(212.55 23.6)"/><use xlink:href="#m" transform="matrix(1,0,0,1,1225,660.8749999999999) translate(24.099999999999994 17.1)"/><use xlink:href="#n" transform="matrix(1,0,0,1,1225,660.8749999999999) translate(88.9 17.1)"/><use xlink:href="#o" transform="matrix(1,0,0,1,1375.3368673238153,660.8749999999999) translate(53.025 17.1)"/><use xlink:href="#p" transform="matrix(1,0,0,1,1505,660.8749999999999) translate(82.075 17.1)"/><use xlink:href="#q" transform="matrix(1,0,0,1,1225,692.8749999999999) translate(41.55 17.1)"/><use xlink:href="#r" transform="matrix(1,0,0,1,1225,692.8749999999999) translate(71.55 17.1)"/><use xlink:href="#U" transform="matrix(1,0,0,1,1375.3368673238153,692.8749999999999) translate(15.549999999999997 17.1)"/><use xlink:href="#V" transform="matrix(1,0,0,1,1505,692.8749999999999) translate(77.55 17.1)"/><use xlink:href="#q" transform="matrix(1,0,0,1,1225,724.8749999999999) translate(41.55 17.1)"/><use xlink:href="#r" transform="matrix(1,0,0,1,1225,724.8749999999999) translate(71.55 17.1)"/><use xlink:href="#ag" transform="matrix(1,0,0,1,1375.3368673238153,724.8749999999999) translate(22.525 17.1)"/><use xlink:href="#V" transform="matrix(1,0,0,1,1505,724.8749999999999) translate(77.55 17.1)"/><use xlink:href="#w" transform="matrix(1,0,0,1,1225,756.8749999999999) translate(41.55 17.1)"/><use xlink:href="#x" transform="matrix(1,0,0,1,1225,756.8749999999999) translate(71.55 17.1)"/><use xlink:href="#ah" transform="matrix(1,0,0,1,1375.3368673238153,756.8749999999999) translate(0 17.1)"/><use xlink:href="#z" transform="matrix(1,0,0,1,1505,756.8749999999999) translate(0 17.1)"/><use xlink:href="#ai" transform="matrix(1,0,0,1,1375.3368673238153,788.8749999999999) translate(0 17.1)"/><use xlink:href="#aj" transform="matrix(1,0,0,1,1505,788.8749999999999) translate(0 17.1)"/><use xlink:href="#ak" transform="matrix(1,0,0,1,1225,820.8749999999999) translate(26.549999999999997 17.1)"/><use xlink:href="#Z" transform="matrix(1,0,0,1,1225,820.8749999999999) translate(86.44999999999999 17.1)"/><use xlink:href="#al" transform="matrix(1,0,0,1,1375.3368673238153,820.8749999999999) translate(0 17.1)"/><use xlink:href="#ab" transform="matrix(1,0,0,1,1505,820.8749999999999) translate(0 17.1)"/><use xlink:href="#ac" transform="matrix(1,0,0,1,1505,820.8749999999999) translate(96.9 17.1)"/><use xlink:href="#ak" transform="matrix(1,0,0,1,1225,852.8749999999999) translate(26.549999999999997 17.1)"/><use xlink:href="#Z" transform="matrix(1,0,0,1,1225,852.8749999999999) translate(86.44999999999999 17.1)"/><use xlink:href="#ad" transform="matrix(1,0,0,1,1375.3368673238153,852.8749999999999) translate(0 17.1)"/><use xlink:href="#ab" transform="matrix(1,0,0,1,1505,852.8749999999999) translate(0 17.1)"/><use xlink:href="#ae" transform="matrix(1,0,0,1,1505,852.8749999999999) translate(96.9 17.1)"/><path d="M100 231.2c0-4.43 3.58-8 8-8h384c4.42 0 8 3.57 8 8v290c0 4.4-3.58 8-8 8H108c-4.42 0-8-3.6-8-8z" fill="#fff"/><path d="M100 231.2c0-4.43 3.58-8 8-8h384c4.42 0 8 3.57 8 8v290c0 4.4-3.58 8-8 8H108c-4.42 0-8-3.6-8-8zM100 263.2h400M194.27 263.2v266M330 263.2v266" stroke="#333" fill="none"/><use xlink:href="#am" transform="matrix(1,0,0,1,110,223.18750000009098) translate(171.5 23.6)"/><g><use xlink:href="#S" transform="matrix(1,0,0,1,105,265.68750000009095) translate(12.599999999999998 16.799999999999997)"/><use xlink:href="#n" transform="matrix(1,0,0,1,105,265.68750000009095) translate(28.5 38.4)"/></g><g><use xlink:href="#o" transform="matrix(1,0,0,1,199.2724809497147,265.68750000009095) translate(56.025 27.6)"/></g><g><use xlink:href="#p" transform="matrix(1,0,0,1,335,265.68750000009095) translate(57.075 27.6)"/></g><g><use xlink:href="#q" transform="matrix(1,0,0,1,105,318.68750000009095) translate(11.05 16.799999999999997)"/><use xlink:href="#an" transform="matrix(1,0,0,1,105,318.68750000009095) translate(41.05 16.799999999999997)"/><use xlink:href="#ao" transform="matrix(1,0,0,1,105,318.68750000009095) translate(15.524999999999999 38.4)"/></g><g><use xlink:href="#ap" transform="matrix(1,0,0,1,199.2724809497147,318.68750000009095) translate(21.575000000000003 27.6)"/></g><g><use xlink:href="#t" transform="matrix(1,0,0,1,335,318.68750000009095) translate(35.099999999999994 27.6)"/></g><g><use xlink:href="#q" transform="matrix(1,0,0,1,105,371.68750000009095) translate(13.55 17.1)"/><use xlink:href="#r" transform="matrix(1,0,0,1,105,371.68750000009095) translate(43.55 17.1)"/></g><g><use xlink:href="#aq" transform="matrix(1,0,0,1,199.2724809497147,371.68750000009095) translate(24.549999999999997 17.1)"/></g><g><use xlink:href="#ar" transform="matrix(1,0,0,1,335,371.68750000009095) translate(35.099999999999994 17.1)"/></g><g><use xlink:href="#as" transform="matrix(1,0,0,1,199.2724809497147,403.68750000009095) translate(0 17.1)"/></g><g><use xlink:href="#aj" transform="matrix(1,0,0,1,335,403.68750000009095) translate(30.099999999999994 14.4)"/></g><g><use xlink:href="#w" transform="matrix(1,0,0,1,105,435.68750000009095) translate(13.55 17.1)"/><use xlink:href="#x" transform="matrix(1,0,0,1,105,435.68750000009095) translate(43.55 17.1)"/></g><g><use xlink:href="#ah" transform="matrix(1,0,0,1,199.2724809497147,435.68750000009095) translate(0 17.1)"/></g><g><use xlink:href="#z" transform="matrix(1,0,0,1,335,435.68750000009095) translate(62.5 14.4)"/></g><g><use xlink:href="#at" transform="matrix(1,0,0,1,199.2724809497147,467.68750000009095) translate(0 17.1)"/></g><g><use xlink:href="#aj" transform="matrix(1,0,0,1,335,467.68750000009095) translate(30.099999999999994 14.4)"/></g><g><use xlink:href="#au" transform="matrix(1,0,0,1,199.2724809497147,499.68750000009095) translate(0 17.1)"/></g><g><use xlink:href="#av" transform="matrix(1,0,0,1,335,499.68750000009095) translate(58.55 14.4)"/></g><path d="M619.5 595H602c-6.63 0-12 5.37-12 12v225.02c0 6.63-5.37 12-12 12h-18.1" stroke="#333" fill="none"/><path d="M619.5 585v20M639.5 595h-20M540.72 834.02l20 10-20 10M540.72 844.02h20" stroke="#333" fill="#fff"/><path d="M599.5 1037.87H592c-6.63 0-12-5.37-12-12V909.13c0-6.63-5.37-12-12-12h-8.1" stroke="#333" fill="none"/><path d="M599.5 1027.87v20M619.5 1037.87h-20M540.72 887.13l20 10-20 10M540.72 897.13h20" stroke="#333" fill="#fff"/><path d="M1140.5 1037.87h17.5c6.63 0 12-5.37 12-12v-147.5c0-6.62 5.37-12 12-12h18.1" stroke="#333" fill="none"/><path d="M1140.5 1047.87v-20M1120.5 1037.87h20M1219.28 876.37l-20-10 20-10M1219.28 866.37h-20" stroke="#333" fill="#fff"/><path d="M1160.5 595h7.5c6.63 0 12 5.37 12 12v55.37c0 6.63 5.37 12 12 12h8.1" stroke="#333" fill="none"/><path d="M1160.5 605v-20M1140.5 595h20M1219.28 684.37l-20-10 20-10M1219.28 674.37h-20" stroke="#333" fill="#fff"/><defs><path fill="#a9afb8" d="M24-248c93 1 206-16 204 79-1 75-69 88-152 82V0H24v-248zm52 121c47 0 100 7 100-41 0-47-54-39-100-39v80" id="aw"/><path fill="#a9afb8" d="M123 10C108 53 80 86 19 72V37c35 8 53-11 59-39L3-190h52l48 148c12-52 28-100 44-148h51" id="ax"/><path fill="#a9afb8" d="M115-3C79 11 28 4 28-45v-112H4v-33h27l15-45h31v45h36v33H77v99c-1 23 16 31 38 25v30" id="ay"/><path fill="#a9afb8" d="M114-157C55-157 80-60 75 0H25v-261h50l-1 109c12-26 28-41 61-42 86-1 58 113 63 194h-50c-7-57 23-157-34-157" id="az"/><path fill="#a9afb8" d="M110-194c64 0 96 36 96 99 0 64-35 99-97 99-61 0-95-36-95-99 0-62 34-99 96-99zm-1 164c35 0 45-28 45-65 0-40-10-65-43-65-34 0-45 26-45 65 0 36 10 65 43 65" id="aA"/><path fill="#a9afb8" d="M135-194c87-1 58 113 63 194h-50c-7-57 23-157-34-157-59 0-34 97-39 157H25l-1-190h47c2 12-1 28 3 38 12-26 28-41 61-42" id="aB"/><g id="a"><use transform="matrix(0.0728395061728395,0,0,0.0728395061728395,0,0)" xlink:href="#aw"/><use transform="matrix(0.0728395061728395,0,0,0.0728395061728395,17.48148148148148,0)" xlink:href="#ax"/><use transform="matrix(0.0728395061728395,0,0,0.0728395061728395,32.04938271604938,0)" xlink:href="#ay"/><use transform="matrix(0.0728395061728395,0,0,0.0728395061728395,40.717283950617286,0)" xlink:href="#az"/><use transform="matrix(0.0728395061728395,0,0,0.0728395061728395,56.66913580246913,0)" xlink:href="#aA"/><use transform="matrix(0.0728395061728395,0,0,0.0728395061728395,72.62098765432098,0)" xlink:href="#aB"/></g><path fill="#a9afb8" d="M199 0l-22-63H83L61 0H9l90-248h61L250 0h-51zm-33-102l-36-108c-10 38-24 72-36 108h72" id="aC"/><path fill="#a9afb8" d="M135-194c53 0 70 44 70 98 0 56-19 98-73 100-31 1-45-17-59-34 3 33 2 69 2 105H25l-1-265h48c2 10 0 23 3 31 11-24 29-35 60-35zM114-30c33 0 39-31 40-66 0-38-9-64-40-64-56 0-55 130 0 130" id="aD"/><path fill="#a9afb8" d="M25-224v-37h50v37H25zM25 0v-190h50V0H25" id="aE"/><g id="b"><use transform="matrix(0.0728395061728395,0,0,0.0728395061728395,0,0)" xlink:href="#aC"/><use transform="matrix(0.0728395061728395,0,0,0.0728395061728395,18.86543209876543,0)" xlink:href="#aD"/><use transform="matrix(0.0728395061728395,0,0,0.0728395061728395,34.81728395061728,0)" xlink:href="#aE"/></g><path fill="#a9afb8" d="M240-174c0 40-23 61-54 70L253 0h-59l-57-94H76V0H24v-248c93 4 217-23 216 74zM76-134c48-2 112 12 112-38 0-48-66-32-112-35v73" id="aF"/><path fill="#a9afb8" d="M185-48c-13 30-37 53-82 52C43 2 14-33 14-96s30-98 90-98c62 0 83 45 84 108H66c0 31 8 55 39 56 18 0 30-7 34-22zm-45-69c5-46-57-63-70-21-2 6-4 13-4 21h74" id="aG"/><path fill="#a9afb8" d="M137-138c1-29-70-34-71-4 15 46 118 7 119 86 1 83-164 76-172 9l43-7c4 19 20 25 44 25 33 8 57-30 24-41C81-84 22-81 20-136c-2-80 154-74 161-7" id="aH"/><g id="c"><use transform="matrix(0.0728395061728395,0,0,0.0728395061728395,0,0)" xlink:href="#aF"/><use transform="matrix(0.0728395061728395,0,0,0.0728395061728395,18.86543209876543,0)" xlink:href="#aG"/><use transform="matrix(0.0728395061728395,0,0,0.0728395061728395,33.43333333333333,0)" xlink:href="#aH"/><use transform="matrix(0.0728395061728395,0,0,0.0728395061728395,48.00123456790123,0)" xlink:href="#ay"/></g><path fill="#a9afb8" d="M76-208v77h127v40H76V0H24v-248h183v40H76" id="aI"/><path fill="#a9afb8" d="M25 0v-261h50V0H25" id="aJ"/><path fill="#a9afb8" d="M133-34C117-15 103 5 69 4 32 3 11-16 11-54c-1-60 55-63 116-61 1-26-3-47-28-47-18 1-26 9-28 27l-52-2c7-38 36-58 82-57s74 22 75 68l1 82c-1 14 12 18 25 15v27c-30 8-71 5-69-32zm-48 3c29 0 43-24 42-57-32 0-66-3-65 30 0 17 8 27 23 27" id="aK"/><path fill="#a9afb8" d="M147 0L96-86 75-71V0H25v-261h50v150l67-79h53l-66 74L201 0h-54" id="aL"/><g id="d"><use transform="matrix(0.0728395061728395,0,0,0.0728395061728395,0,0)" xlink:href="#aI"/><use transform="matrix(0.0728395061728395,0,0,0.0728395061728395,15.95185185185185,0)" xlink:href="#aJ"/><use transform="matrix(0.0728395061728395,0,0,0.0728395061728395,23.235802469135802,0)" xlink:href="#aK"/><use transform="matrix(0.0728395061728395,0,0,0.0728395061728395,37.803703703703704,0)" xlink:href="#aH"/><use transform="matrix(0.0728395061728395,0,0,0.0728395061728395,52.3716049382716,0)" xlink:href="#aL"/></g><path fill="#a9afb8" d="M233-177c-1 41-23 64-60 70L243 0h-38l-65-103H63V0H30v-248c88 3 205-21 203 71zM63-129c60-2 137 13 137-47 0-61-80-42-137-45v92" id="aM"/><path fill="#a9afb8" d="M141-36C126-15 110 5 73 4 37 3 15-17 15-53c-1-64 63-63 125-63 3-35-9-54-41-54-24 1-41 7-42 31l-33-3c5-37 33-52 76-52 45 0 72 20 72 64v82c-1 20 7 32 28 27v20c-31 9-61-2-59-35zM48-53c0 20 12 33 32 33 41-3 63-29 60-74-43 2-92-5-92 41" id="aN"/><path fill="#a9afb8" d="M101-234c-31-9-42 10-38 44h38v23H63V0H32v-167H5v-23h27c-7-52 17-82 69-68v24" id="aO"/><path fill="#a9afb8" d="M100-194c63 0 86 42 84 106H49c0 40 14 67 53 68 26 1 43-12 49-29l28 8c-11 28-37 45-77 45C44 4 14-33 15-96c1-61 26-98 85-98zm52 81c6-60-76-77-97-28-3 7-6 17-6 28h103" id="aP"/><path fill="#a9afb8" d="M24 0v-261h32V0H24" id="aQ"/><g id="e"><use transform="matrix(0.04248971193415638,0,0,0.04248971193415638,0,0)" xlink:href="#aM"/><use transform="matrix(0.04248971193415638,0,0,0.04248971193415638,11.004835390946502,0)" xlink:href="#aN"/><use transform="matrix(0.04248971193415638,0,0,0.04248971193415638,19.502777777777776,0)" xlink:href="#aO"/><use transform="matrix(0.04248971193415638,0,0,0.04248971193415638,23.751748971193415,0)" xlink:href="#aN"/><use transform="matrix(0.04248971193415638,0,0,0.04248971193415638,32.24969135802469,0)" xlink:href="#aP"/><use transform="matrix(0.04248971193415638,0,0,0.04248971193415638,40.74763374485597,0)" xlink:href="#aQ"/></g><path fill="#a9afb8" d="M212-179c-10-28-35-45-73-45-59 0-87 40-87 99 0 60 29 101 89 101 43 0 62-24 78-52l27 14C228-24 195 4 139 4 59 4 22-46 18-125c-6-104 99-153 187-111 19 9 31 26 39 46" id="aR"/><path fill="#a9afb8" d="M100-194c62-1 85 37 85 99 1 63-27 99-86 99S16-35 15-95c0-66 28-99 85-99zM99-20c44 1 53-31 53-75 0-43-8-75-51-75s-53 32-53 75 10 74 51 75" id="aS"/><path fill="#a9afb8" d="M135-143c-3-34-86-38-87 0 15 53 115 12 119 90S17 21 10-45l28-5c4 36 97 45 98 0-10-56-113-15-118-90-4-57 82-63 122-42 12 7 21 19 24 35" id="aT"/><path fill="#a9afb8" d="M59-47c-2 24 18 29 38 22v24C64 9 27 4 27-40v-127H5v-23h24l9-43h21v43h35v23H59v120" id="aU"/><g id="f"><use transform="matrix(0.04248971193415638,0,0,0.04248971193415638,0,0)" xlink:href="#aR"/><use transform="matrix(0.04248971193415638,0,0,0.04248971193415638,11.004835390946502,0)" xlink:href="#aS"/><use transform="matrix(0.04248971193415638,0,0,0.04248971193415638,19.502777777777776,0)" xlink:href="#aT"/><use transform="matrix(0.04248971193415638,0,0,0.04248971193415638,27.150925925925925,0)" xlink:href="#aU"/><use transform="matrix(0.04248971193415638,0,0,0.04248971193415638,31.399897119341563,0)" xlink:href="#aN"/></g><path fill="#a9afb8" d="M127-220V0H93v-220H8v-28h204v28h-85" id="aV"/><path fill="#a9afb8" d="M24-231v-30h32v30H24zM24 0v-190h32V0H24" id="aW"/><path fill="#a9afb8" d="M141 0L90-78 38 0H4l68-98-65-92h35l48 74 47-74h35l-64 92 68 98h-35" id="aX"/><path fill="#a9afb8" d="M114-163C36-179 61-72 57 0H25l-1-190h30c1 12-1 29 2 39 6-27 23-49 58-41v29" id="aY"/><g id="g"><use transform="matrix(0.04248971193415638,0,0,0.04248971193415638,0,0)" xlink:href="#aV"/><use transform="matrix(0.04248971193415638,0,0,0.04248971193415638,7.605658436213991,0)" xlink:href="#aP"/><use transform="matrix(0.04248971193415638,0,0,0.04248971193415638,16.103600823045266,0)" xlink:href="#aW"/><use transform="matrix(0.04248971193415638,0,0,0.04248971193415638,19.46028806584362,0)" xlink:href="#aX"/><use transform="matrix(0.04248971193415638,0,0,0.04248971193415638,27.10843621399177,0)" xlink:href="#aP"/><use transform="matrix(0.04248971193415638,0,0,0.04248971193415638,35.60637860082304,0)" xlink:href="#aW"/><use transform="matrix(0.04248971193415638,0,0,0.04248971193415638,38.96306584362139,0)" xlink:href="#aY"/><use transform="matrix(0.04248971193415638,0,0,0.04248971193415638,44.019341563786,0)" xlink:href="#aN"/></g><path fill="#a9afb8" d="M32 76v-337h29V76H32" id="aZ"/><use transform="matrix(0.04248971193415638,0,0,0.04248971193415638,0,0)" xlink:href="#aZ" id="h"/><path fill="#a9afb8" d="M190 0L58-211 59 0H30v-248h39L202-35l-2-213h31V0h-41" id="ba"/><path fill="#a9afb8" d="M108 0H70L1-190h34L89-25l56-165h34" id="bb"/><path fill="#a9afb8" d="M210-169c-67 3-38 105-44 169h-31v-121c0-29-5-50-35-48C34-165 62-65 56 0H25l-1-190h30c1 10-1 24 2 32 10-44 99-50 107 0 11-21 27-35 58-36 85-2 47 119 55 194h-31v-121c0-29-5-49-35-48" id="bc"/><path fill="#a9afb8" d="M115-194c53 0 69 39 70 98 0 66-23 100-70 100C84 3 66-7 56-30L54 0H23l1-261h32v101c10-23 28-34 59-34zm-8 174c40 0 45-34 45-75 0-40-5-75-45-74-42 0-51 32-51 76 0 43 10 73 51 73" id="bd"/><g id="i"><use transform="matrix(0.04248971193415638,0,0,0.04248971193415638,0,0)" xlink:href="#ba"/><use transform="matrix(0.04248971193415638,0,0,0.04248971193415638,11.004835390946502,0)" xlink:href="#aS"/><use transform="matrix(0.04248971193415638,0,0,0.04248971193415638,19.502777777777776,0)" xlink:href="#bb"/><use transform="matrix(0.04248971193415638,0,0,0.04248971193415638,27.150925925925925,0)" xlink:href="#aP"/><use transform="matrix(0.04248971193415638,0,0,0.04248971193415638,35.6488683127572,0)" xlink:href="#bc"/><use transform="matrix(0.04248971193415638,0,0,0.04248971193415638,48.35329218106995,0)" xlink:href="#bd"/><use transform="matrix(0.04248971193415638,0,0,0.04248971193415638,56.851234567901244,0)" xlink:href="#aP"/><use transform="matrix(0.04248971193415638,0,0,0.04248971193415638,65.34917695473251,0)" xlink:href="#aY"/></g><path fill="#a9afb8" d="M27 0v-27h64v-190l-56 39v-29l58-41h29v221h61V0H27" id="be"/><path fill="#a9afb8" d="M110-160c48 1 74 30 74 79 0 53-28 85-80 85-65 0-83-55-86-122-5-90 50-162 133-122 14 7 22 21 27 39l-31 6c-5-40-67-38-82-6-9 19-15 44-15 74 11-20 30-34 60-33zm-7 138c34 0 49-23 49-58s-16-56-50-56c-29 0-50 16-49 49 1 36 15 65 50 65" id="bf"/><path fill="#a9afb8" d="M68-38c1 34 0 65-14 84H32c9-13 17-26 17-46H33v-38h35" id="bg"/><g id="j"><use transform="matrix(0.04248971193415638,0,0,0.04248971193415638,0,0)" xlink:href="#be"/><use transform="matrix(0.04248971193415638,0,0,0.04248971193415638,8.497942386831275,0)" xlink:href="#bf"/><use transform="matrix(0.04248971193415638,0,0,0.04248971193415638,16.99588477366255,0)" xlink:href="#bg"/></g><path fill="#a9afb8" d="M101-251c82-7 93 87 43 132L82-64C71-53 59-42 53-27h129V0H18c2-99 128-94 128-182 0-28-16-43-45-43s-46 15-49 41l-32-3c6-41 34-60 81-64" id="bh"/><path fill="#a9afb8" d="M101-251c68 0 85 55 85 127S166 4 100 4C33 4 14-52 14-124c0-73 17-127 87-127zm-1 229c47 0 54-49 54-102s-4-102-53-102c-51 0-55 48-55 102 0 53 5 102 54 102" id="bi"/><g id="k"><use transform="matrix(0.04248971193415638,0,0,0.04248971193415638,0,0)" xlink:href="#bh"/><use transform="matrix(0.04248971193415638,0,0,0.04248971193415638,8.497942386831275,0)" xlink:href="#bi"/><use transform="matrix(0.04248971193415638,0,0,0.04248971193415638,16.99588477366255,0)" xlink:href="#bh"/><use transform="matrix(0.04248971193415638,0,0,0.04248971193415638,25.493827160493822,0)" xlink:href="#bi"/></g><path fill="#333" d="M212-179c-10-28-35-45-73-45-59 0-87 40-87 99 0 60 29 101 89 101 43 0 62-24 78-52l27 14C228-24 195 4 139 4 59 4 22-46 18-125c-6-104 99-153 187-111 19 9 31 26 39 46" id="bj"/><path fill="#333" d="M84 4C-5 8 30-112 23-190h32v120c0 31 7 50 39 49 72-2 45-101 50-169h31l1 190h-30c-1-10 1-25-2-33-11 22-28 36-60 37" id="bk"/><path fill="#333" d="M135-143c-3-34-86-38-87 0 15 53 115 12 119 90S17 21 10-45l28-5c4 36 97 45 98 0-10-56-113-15-118-90-4-57 82-63 122-42 12 7 21 19 24 35" id="bl"/><path fill="#333" d="M59-47c-2 24 18 29 38 22v24C64 9 27 4 27-40v-127H5v-23h24l9-43h21v43h35v23H59v120" id="bm"/><path fill="#333" d="M100-194c62-1 85 37 85 99 1 63-27 99-86 99S16-35 15-95c0-66 28-99 85-99zM99-20c44 1 53-31 53-75 0-43-8-75-51-75s-53 32-53 75 10 74 51 75" id="bn"/><path fill="#333" d="M210-169c-67 3-38 105-44 169h-31v-121c0-29-5-50-35-48C34-165 62-65 56 0H25l-1-190h30c1 10-1 24 2 32 10-44 99-50 107 0 11-21 27-35 58-36 85-2 47 119 55 194h-31v-121c0-29-5-49-35-48" id="bo"/><path fill="#333" d="M100-194c63 0 86 42 84 106H49c0 40 14 67 53 68 26 1 43-12 49-29l28 8c-11 28-37 45-77 45C44 4 14-33 15-96c1-61 26-98 85-98zm52 81c6-60-76-77-97-28-3 7-6 17-6 28h103" id="bp"/><path fill="#333" d="M114-163C36-179 61-72 57 0H25l-1-190h30c1 12-1 29 2 39 6-27 23-49 58-41v29" id="bq"/><g id="l"><use transform="matrix(0.05,0,0,0.05,0,0)" xlink:href="#bj"/><use transform="matrix(0.05,0,0,0.05,12.950000000000001,0)" xlink:href="#bk"/><use transform="matrix(0.05,0,0,0.05,22.950000000000003,0)" xlink:href="#bl"/><use transform="matrix(0.05,0,0,0.05,31.950000000000003,0)" xlink:href="#bm"/><use transform="matrix(0.05,0,0,0.05,36.95,0)" xlink:href="#bn"/><use transform="matrix(0.05,0,0,0.05,46.95,0)" xlink:href="#bo"/><use transform="matrix(0.05,0,0,0.05,61.900000000000006,0)" xlink:href="#bp"/><use transform="matrix(0.05,0,0,0.05,71.9,0)" xlink:href="#bq"/><use transform="matrix(0.05,0,0,0.05,77.85000000000001,0)" xlink:href="#bl"/></g><path fill="#333" d="M115-194c55 1 70 41 70 98S169 2 115 4C84 4 66-9 55-30l1 105H24l-1-265h31l2 30c10-21 28-34 59-34zm-8 174c40 0 45-34 45-75s-6-73-45-74c-42 0-51 32-51 76 0 43 10 73 51 73" id="br"/><path fill="#333" d="M24-231v-30h32v30H24zM24 0v-190h32V0H24" id="bs"/><path fill="#333" d="M141-36C126-15 110 5 73 4 37 3 15-17 15-53c-1-64 63-63 125-63 3-35-9-54-41-54-24 1-41 7-42 31l-33-3c5-37 33-52 76-52 45 0 72 20 72 64v82c-1 20 7 32 28 27v20c-31 9-61-2-59-35zM48-53c0 20 12 33 32 33 41-3 63-29 60-74-43 2-92-5-92 41" id="bt"/><path fill="#333" d="M179-190L93 31C79 59 56 82 12 73V49c39 6 53-20 64-50L1-190h34L92-34l54-156h33" id="bu"/><g id="m"><use transform="matrix(0.05,0,0,0.05,0,0)" xlink:href="#br"/><use transform="matrix(0.05,0,0,0.05,10,0)" xlink:href="#bq"/><use transform="matrix(0.05,0,0,0.05,15.949999999999998,0)" xlink:href="#bs"/><use transform="matrix(0.05,0,0,0.05,19.9,0)" xlink:href="#bo"/><use transform="matrix(0.05,0,0,0.05,34.85,0)" xlink:href="#bt"/><use transform="matrix(0.05,0,0,0.05,44.85,0)" xlink:href="#bq"/><use transform="matrix(0.05,0,0,0.05,50.800000000000004,0)" xlink:href="#bu"/></g><path fill="#333" d="M143 0L79-87 56-68V0H24v-261h32v163l83-92h37l-77 82L181 0h-38" id="bv"/><g id="n"><use transform="matrix(0.05,0,0,0.05,0,0)" xlink:href="#bv"/><use transform="matrix(0.05,0,0,0.05,9,0)" xlink:href="#bp"/><use transform="matrix(0.05,0,0,0.05,19,0)" xlink:href="#bu"/></g><path fill="#333" d="M85-194c31 0 48 13 60 33l-1-100h32l1 261h-30c-2-10 0-23-3-31C134-8 116 4 85 4 32 4 16-35 15-94c0-66 23-100 70-100zm9 24c-40 0-46 34-46 75 0 40 6 74 45 74 42 0 51-32 51-76 0-42-9-74-50-73" id="bw"/><g id="o"><use transform="matrix(0.05,0,0,0.05,0,0)" xlink:href="#bs"/><use transform="matrix(0.05,0,0,0.05,3.95,0)" xlink:href="#bw"/></g><path fill="#333" d="M185-189c-5-48-123-54-124 2 14 75 158 14 163 119 3 78-121 87-175 55-17-10-28-26-33-46l33-7c5 56 141 63 141-1 0-78-155-14-162-118-5-82 145-84 179-34 5 7 8 16 11 25" id="bx"/><path fill="#333" d="M24 0v-261h32V0H24" id="by"/><g id="p"><use transform="matrix(0.05,0,0,0.05,0,0)" xlink:href="#bx"/><use transform="matrix(0.05,0,0,0.05,12,0)" xlink:href="#bp"/><use transform="matrix(0.05,0,0,0.05,22,0)" xlink:href="#bq"/><use transform="matrix(0.05,0,0,0.05,27.950000000000003,0)" xlink:href="#bs"/><use transform="matrix(0.05,0,0,0.05,31.899999999999995,0)" xlink:href="#bt"/><use transform="matrix(0.05,0,0,0.05,41.9,0)" xlink:href="#by"/></g><path fill="#333" d="M117-194c89-4 53 116 60 194h-32v-121c0-31-8-49-39-48C34-167 62-67 57 0H25l-1-190h30c1 10-1 24 2 32 11-22 29-35 61-36" id="bz"/><g id="q"><use transform="matrix(0.05,0,0,0.05,0,0)" xlink:href="#bz"/><use transform="matrix(0.05,0,0,0.05,10,0)" xlink:href="#bn"/><use transform="matrix(0.05,0,0,0.05,20,0)" xlink:href="#bm"/></g><g id="r"><use transform="matrix(0.05,0,0,0.05,0,0)" xlink:href="#bz"/><use transform="matrix(0.05,0,0,0.05,10,0)" xlink:href="#bk"/><use transform="matrix(0.05,0,0,0.05,20,0)" xlink:href="#by"/><use transform="matrix(0.05,0,0,0.05,23.95,0)" xlink:href="#by"/></g><g id="s"><use transform="matrix(0.05,0,0,0.05,0,0)" xlink:href="#bz"/><use transform="matrix(0.05,0,0,0.05,10,0)" xlink:href="#bt"/><use transform="matrix(0.05,0,0,0.05,20,0)" xlink:href="#bo"/><use transform="matrix(0.05,0,0,0.05,34.95,0)" xlink:href="#bp"/></g><path fill="#333" d="M108 0H70L1-190h34L89-25l56-165h34" id="bA"/><path fill="#333" d="M177-190C167-65 218 103 67 71c-23-6-38-20-44-43l32-5c15 47 100 32 89-28v-30C133-14 115 1 83 1 29 1 15-40 15-95c0-56 16-97 71-98 29-1 48 16 59 35 1-10 0-23 2-32h30zM94-22c36 0 50-32 50-73 0-42-14-75-50-75-39 0-46 34-46 75s6 73 46 73" id="bB"/><path fill="#333" d="M87 75C49 33 22-17 22-94c0-76 28-126 65-167h31c-38 41-64 92-64 168S80 34 118 75H87" id="bC"/><path fill="#333" d="M126-127c33 6 58 20 58 59 0 88-139 92-164 29-3-8-5-16-6-25l32-3c6 27 21 44 54 44 32 0 52-15 52-46 0-38-36-46-79-43v-28c39 1 72-4 72-42 0-27-17-43-46-43-28 0-47 15-49 41l-32-3c6-42 35-63 81-64 48-1 79 21 79 65 0 36-21 52-52 59" id="bD"/><path fill="#333" d="M101-251c68 0 85 55 85 127S166 4 100 4C33 4 14-52 14-124c0-73 17-127 87-127zm-1 229c47 0 54-49 54-102s-4-102-53-102c-51 0-55 48-55 102 0 53 5 102 54 102" id="bE"/><path fill="#333" d="M33-261c38 41 65 92 65 168S71 34 33 75H2C39 34 66-17 66-93S39-220 2-261h31" id="bF"/><g id="t"><use transform="matrix(0.05,0,0,0.05,0,0)" xlink:href="#bA"/><use transform="matrix(0.05,0,0,0.05,9,0)" xlink:href="#bt"/><use transform="matrix(0.05,0,0,0.05,19,0)" xlink:href="#bq"/><use transform="matrix(0.05,0,0,0.05,24.95,0)" xlink:href="#bu"/><use transform="matrix(0.05,0,0,0.05,33.95,0)" xlink:href="#bs"/><use transform="matrix(0.05,0,0,0.05,37.900000000000006,0)" xlink:href="#bz"/><use transform="matrix(0.05,0,0,0.05,47.900000000000006,0)" xlink:href="#bB"/><use transform="matrix(0.05,0,0,0.05,57.900000000000006,0)" xlink:href="#bC"/><use transform="matrix(0.05,0,0,0.05,63.85,0)" xlink:href="#bD"/><use transform="matrix(0.05,0,0,0.05,73.85000000000001,0)" xlink:href="#bE"/><use transform="matrix(0.05,0,0,0.05,83.85000000000001,0)" xlink:href="#bF"/></g><path fill="#333" d="M101-234c-31-9-42 10-38 44h38v23H63V0H32v-167H5v-23h27c-7-52 17-82 69-68v24" id="bG"/><g id="u"><use transform="matrix(0.05,0,0,0.05,0,0)" xlink:href="#bG"/><use transform="matrix(0.05,0,0,0.05,5,0)" xlink:href="#bk"/><use transform="matrix(0.05,0,0,0.05,15,0)" xlink:href="#by"/><use transform="matrix(0.05,0,0,0.05,18.95,0)" xlink:href="#by"/><use transform="matrix(0.05,0,0,0.05,22.9,0)" xlink:href="#bz"/><use transform="matrix(0.05,0,0,0.05,32.9,0)" xlink:href="#bt"/><use transform="matrix(0.05,0,0,0.05,42.9,0)" xlink:href="#bo"/><use transform="matrix(0.05,0,0,0.05,57.85,0)" xlink:href="#bp"/></g><path fill="#333" d="M54-142c48-35 137-8 131 61C196 18 31 33 14-55l32-4c7 23 22 37 52 37 35-1 51-22 54-58 4-55-73-65-99-34H22l8-134h141v27H59" id="bH"/><g id="v"><use transform="matrix(0.05,0,0,0.05,0,0)" xlink:href="#bA"/><use transform="matrix(0.05,0,0,0.05,9,0)" xlink:href="#bt"/><use transform="matrix(0.05,0,0,0.05,19,0)" xlink:href="#bq"/><use transform="matrix(0.05,0,0,0.05,24.95,0)" xlink:href="#bu"/><use transform="matrix(0.05,0,0,0.05,33.95,0)" xlink:href="#bs"/><use transform="matrix(0.05,0,0,0.05,37.900000000000006,0)" xlink:href="#bz"/><use transform="matrix(0.05,0,0,0.05,47.900000000000006,0)" xlink:href="#bB"/><use transform="matrix(0.05,0,0,0.05,57.900000000000006,0)" xlink:href="#bC"/><use transform="matrix(0.05,0,0,0.05,63.85,0)" xlink:href="#bH"/><use transform="matrix(0.05,0,0,0.05,73.85000000000001,0)" xlink:href="#bE"/><use transform="matrix(0.05,0,0,0.05,83.85000000000001,0)" xlink:href="#bF"/></g><path d="M117-194c89-4 53 116 60 194h-32v-121c0-31-8-49-39-48C34-167 62-67 57 0H25l-1-190h30c1 10-1 24 2 32 11-22 29-35 61-36" id="bI"/><path d="M100-194c62-1 85 37 85 99 1 63-27 99-86 99S16-35 15-95c0-66 28-99 85-99zM99-20c44 1 53-31 53-75 0-43-8-75-51-75s-53 32-53 75 10 74 51 75" id="bJ"/><path d="M59-47c-2 24 18 29 38 22v24C64 9 27 4 27-40v-127H5v-23h24l9-43h21v43h35v23H59v120" id="bK"/><g id="w"><use transform="matrix(0.05,0,0,0.05,0,0)" xlink:href="#bI"/><use transform="matrix(0.05,0,0,0.05,10,0)" xlink:href="#bJ"/><use transform="matrix(0.05,0,0,0.05,20,0)" xlink:href="#bK"/></g><path d="M84 4C-5 8 30-112 23-190h32v120c0 31 7 50 39 49 72-2 45-101 50-169h31l1 190h-30c-1-10 1-25-2-33-11 22-28 36-60 37" id="bL"/><path d="M24 0v-261h32V0H24" id="bM"/><g id="x"><use transform="matrix(0.05,0,0,0.05,0,0)" xlink:href="#bI"/><use transform="matrix(0.05,0,0,0.05,10,0)" xlink:href="#bL"/><use transform="matrix(0.05,0,0,0.05,20,0)" xlink:href="#bM"/><use transform="matrix(0.05,0,0,0.05,23.95,0)" xlink:href="#bM"/></g><path d="M115-194c53 0 69 39 70 98 0 66-23 100-70 100C84 3 66-7 56-30L54 0H23l1-261h32v101c10-23 28-34 59-34zm-8 174c40 0 45-34 45-75 0-40-5-75-45-74-42 0-51 32-51 76 0 43 10 73 51 73" id="bN"/><path d="M24-231v-30h32v30H24zM24 0v-190h32V0H24" id="bO"/><path d="M114-163C36-179 61-72 57 0H25l-1-190h30c1 12-1 29 2 39 6-27 23-49 58-41v29" id="bP"/><path d="M106-169C34-169 62-67 57 0H25v-261h32l-1 103c12-21 28-36 61-36 89 0 53 116 60 194h-32v-121c2-32-8-49-39-48" id="bQ"/><g id="y"><use transform="matrix(0.05,0,0,0.05,0,0)" xlink:href="#bN"/><use transform="matrix(0.05,0,0,0.05,10,0)" xlink:href="#bO"/><use transform="matrix(0.05,0,0,0.05,13.949999999999998,0)" xlink:href="#bP"/><use transform="matrix(0.05,0,0,0.05,19.9,0)" xlink:href="#bK"/><use transform="matrix(0.05,0,0,0.05,24.9,0)" xlink:href="#bQ"/></g><path d="M85-194c31 0 48 13 60 33l-1-100h32l1 261h-30c-2-10 0-23-3-31C134-8 116 4 85 4 32 4 16-35 15-94c0-66 23-100 70-100zm9 24c-40 0-46 34-46 75 0 40 6 74 45 74 42 0 51-32 51-76 0-42-9-74-50-73" id="bR"/><path d="M141-36C126-15 110 5 73 4 37 3 15-17 15-53c-1-64 63-63 125-63 3-35-9-54-41-54-24 1-41 7-42 31l-33-3c5-37 33-52 76-52 45 0 72 20 72 64v82c-1 20 7 32 28 27v20c-31 9-61-2-59-35zM48-53c0 20 12 33 32 33 41-3 63-29 60-74-43 2-92-5-92 41" id="bS"/><path d="M100-194c63 0 86 42 84 106H49c0 40 14 67 53 68 26 1 43-12 49-29l28 8c-11 28-37 45-77 45C44 4 14-33 15-96c1-61 26-98 85-98zm52 81c6-60-76-77-97-28-3 7-6 17-6 28h103" id="bT"/><g id="z"><use transform="matrix(0.05,0,0,0.05,0,0)" xlink:href="#bR"/><use transform="matrix(0.05,0,0,0.05,10,0)" xlink:href="#bS"/><use transform="matrix(0.05,0,0,0.05,20,0)" xlink:href="#bK"/><use transform="matrix(0.05,0,0,0.05,25,0)" xlink:href="#bT"/></g><path d="M96-169c-40 0-48 33-48 73s9 75 48 75c24 0 41-14 43-38l32 2c-6 37-31 61-74 61-59 0-76-41-82-99-10-93 101-131 147-64 4 7 5 14 7 22l-32 3c-4-21-16-35-41-35" id="bU"/><path d="M210-169c-67 3-38 105-44 169h-31v-121c0-29-5-50-35-48C34-165 62-65 56 0H25l-1-190h30c1 10-1 24 2 32 10-44 99-50 107 0 11-21 27-35 58-36 85-2 47 119 55 194h-31v-121c0-29-5-49-35-48" id="bV"/><g id="A"><use transform="matrix(0.05,0,0,0.05,0,0)" xlink:href="#bR"/><use transform="matrix(0.05,0,0,0.05,10,0)" xlink:href="#bJ"/><use transform="matrix(0.05,0,0,0.05,20,0)" xlink:href="#bU"/><use transform="matrix(0.05,0,0,0.05,29,0)" xlink:href="#bL"/><use transform="matrix(0.05,0,0,0.05,39,0)" xlink:href="#bV"/><use transform="matrix(0.05,0,0,0.05,53.95,0)" xlink:href="#bT"/><use transform="matrix(0.05,0,0,0.05,63.95,0)" xlink:href="#bI"/><use transform="matrix(0.05,0,0,0.05,73.95,0)" xlink:href="#bK"/></g><path d="M108 0H70L1-190h34L89-25l56-165h34" id="bW"/><path d="M179-190L93 31C79 59 56 82 12 73V49c39 6 53-20 64-50L1-190h34L92-34l54-156h33" id="bX"/><path d="M177-190C167-65 218 103 67 71c-23-6-38-20-44-43l32-5c15 47 100 32 89-28v-30C133-14 115 1 83 1 29 1 15-40 15-95c0-56 16-97 71-98 29-1 48 16 59 35 1-10 0-23 2-32h30zM94-22c36 0 50-32 50-73 0-42-14-75-50-75-39 0-46 34-46 75s6 73 46 73" id="bY"/><path d="M87 75C49 33 22-17 22-94c0-76 28-126 65-167h31c-38 41-64 92-64 168S80 34 118 75H87" id="bZ"/><path d="M27 0v-27h64v-190l-56 39v-29l58-41h29v221h61V0H27" id="ca"/><path d="M33-261c38 41 65 92 65 168S71 34 33 75H2C39 34 66-17 66-93S39-220 2-261h31" id="cb"/><g id="B"><use transform="matrix(0.05,0,0,0.05,0,0)" xlink:href="#bW"/><use transform="matrix(0.05,0,0,0.05,9,0)" xlink:href="#bS"/><use transform="matrix(0.05,0,0,0.05,19,0)" xlink:href="#bP"/><use transform="matrix(0.05,0,0,0.05,24.95,0)" xlink:href="#bX"/><use transform="matrix(0.05,0,0,0.05,33.95,0)" xlink:href="#bO"/><use transform="matrix(0.05,0,0,0.05,37.900000000000006,0)" xlink:href="#bI"/><use transform="matrix(0.05,0,0,0.05,47.900000000000006,0)" xlink:href="#bY"/><use transform="matrix(0.05,0,0,0.05,57.900000000000006,0)" xlink:href="#bZ"/><use transform="matrix(0.05,0,0,0.05,63.85,0)" xlink:href="#ca"/><use transform="matrix(0.05,0,0,0.05,72.5,0)" xlink:href="#ca"/><use transform="matrix(0.05,0,0,0.05,82.5,0)" xlink:href="#cb"/></g><g id="C"><use transform="matrix(0.05,0,0,0.05,0,0)" xlink:href="#bY"/><use transform="matrix(0.05,0,0,0.05,10,0)" xlink:href="#bT"/><use transform="matrix(0.05,0,0,0.05,20,0)" xlink:href="#bI"/><use transform="matrix(0.05,0,0,0.05,30,0)" xlink:href="#bR"/><use transform="matrix(0.05,0,0,0.05,40,0)" xlink:href="#bT"/><use transform="matrix(0.05,0,0,0.05,50,0)" xlink:href="#bP"/></g><g id="D"><use transform="matrix(0.05,0,0,0.05,0,0)" xlink:href="#bW"/><use transform="matrix(0.05,0,0,0.05,9,0)" xlink:href="#bS"/><use transform="matrix(0.05,0,0,0.05,19,0)" xlink:href="#bP"/><use transform="matrix(0.05,0,0,0.05,24.95,0)" xlink:href="#bX"/><use transform="matrix(0.05,0,0,0.05,33.95,0)" xlink:href="#bO"/><use transform="matrix(0.05,0,0,0.05,37.900000000000006,0)" xlink:href="#bI"/><use transform="matrix(0.05,0,0,0.05,47.900000000000006,0)" xlink:href="#bY"/><use transform="matrix(0.05,0,0,0.05,57.900000000000006,0)" xlink:href="#bZ"/><use transform="matrix(0.05,0,0,0.05,63.85,0)" xlink:href="#ca"/><use transform="matrix(0.05,0,0,0.05,73.85000000000001,0)" xlink:href="#cb"/></g><path fill="#333" d="M30-248c87 1 191-15 191 75 0 78-77 80-158 76V0H30v-248zm33 125c57 0 124 11 124-50 0-59-68-47-124-48v98" id="cc"/><path fill="#333" d="M96-169c-40 0-48 33-48 73s9 75 48 75c24 0 41-14 43-38l32 2c-6 37-31 61-74 61-59 0-76-41-82-99-10-93 101-131 147-64 4 7 5 14 7 22l-32 3c-4-21-16-35-41-35" id="cd"/><g id="E"><use transform="matrix(0.05,0,0,0.05,0,0)" xlink:href="#cc"/><use transform="matrix(0.05,0,0,0.05,12,0)" xlink:href="#bq"/><use transform="matrix(0.05,0,0,0.05,17.95,0)" xlink:href="#bn"/><use transform="matrix(0.05,0,0,0.05,27.950000000000003,0)" xlink:href="#bw"/><use transform="matrix(0.05,0,0,0.05,37.95,0)" xlink:href="#bk"/><use transform="matrix(0.05,0,0,0.05,47.95,0)" xlink:href="#cd"/><use transform="matrix(0.05,0,0,0.05,56.95,0)" xlink:href="#bm"/><use transform="matrix(0.05,0,0,0.05,61.95,0)" xlink:href="#bl"/></g><path fill="#333" d="M101-251c82-7 93 87 43 132L82-64C71-53 59-42 53-27h129V0H18c2-99 128-94 128-182 0-28-16-43-45-43s-46 15-49 41l-32-3c6-41 34-60 81-64" id="ce"/><g id="F"><use transform="matrix(0.05,0,0,0.05,0,0)" xlink:href="#bA"/><use transform="matrix(0.05,0,0,0.05,9,0)" xlink:href="#bt"/><use transform="matrix(0.05,0,0,0.05,19,0)" xlink:href="#bq"/><use transform="matrix(0.05,0,0,0.05,24.95,0)" xlink:href="#bu"/><use transform="matrix(0.05,0,0,0.05,33.95,0)" xlink:href="#bs"/><use transform="matrix(0.05,0,0,0.05,37.900000000000006,0)" xlink:href="#bz"/><use transform="matrix(0.05,0,0,0.05,47.900000000000006,0)" xlink:href="#bB"/><use transform="matrix(0.05,0,0,0.05,57.900000000000006,0)" xlink:href="#bC"/><use transform="matrix(0.05,0,0,0.05,63.85,0)" xlink:href="#ce"/><use transform="matrix(0.05,0,0,0.05,73.85000000000001,0)" xlink:href="#bE"/><use transform="matrix(0.05,0,0,0.05,83.85000000000001,0)" xlink:href="#bE"/><use transform="matrix(0.05,0,0,0.05,93.85000000000001,0)" xlink:href="#bF"/></g><path fill="#333" d="M115-194c53 0 69 39 70 98 0 66-23 100-70 100C84 3 66-7 56-30L54 0H23l1-261h32v101c10-23 28-34 59-34zm-8 174c40 0 45-34 45-75 0-40-5-75-45-74-42 0-51 32-51 76 0 43 10 73 51 73" id="cf"/><g id="G"><use transform="matrix(0.05,0,0,0.05,0,0)" xlink:href="#cf"/><use transform="matrix(0.05,0,0,0.05,10,0)" xlink:href="#bq"/><use transform="matrix(0.05,0,0,0.05,15.949999999999998,0)" xlink:href="#bt"/><use transform="matrix(0.05,0,0,0.05,25.950000000000003,0)" xlink:href="#bz"/><use transform="matrix(0.05,0,0,0.05,35.95,0)" xlink:href="#bw"/></g><path d="M233-177c-1 41-23 64-60 70L243 0h-38l-65-103H63V0H30v-248c88 3 205-21 203 71zM63-129c60-2 137 13 137-47 0-61-80-42-137-45v92" id="cg"/><path d="M135-143c-3-34-86-38-87 0 15 53 115 12 119 90S17 21 10-45l28-5c4 36 97 45 98 0-10-56-113-15-118-90-4-57 82-63 122-42 12 7 21 19 24 35" id="ch"/><g id="H"><use transform="matrix(0.05,0,0,0.05,0,0)" xlink:href="#cg"/><use transform="matrix(0.05,0,0,0.05,12.950000000000001,0)" xlink:href="#bT"/><use transform="matrix(0.05,0,0,0.05,22.950000000000003,0)" xlink:href="#bY"/><use transform="matrix(0.05,0,0,0.05,32.95,0)" xlink:href="#bO"/><use transform="matrix(0.05,0,0,0.05,36.900000000000006,0)" xlink:href="#ch"/><use transform="matrix(0.05,0,0,0.05,45.900000000000006,0)" xlink:href="#bK"/><use transform="matrix(0.05,0,0,0.05,50.900000000000006,0)" xlink:href="#bP"/><use transform="matrix(0.05,0,0,0.05,56.85,0)" xlink:href="#bS"/><use transform="matrix(0.05,0,0,0.05,66.85000000000001,0)" xlink:href="#bK"/><use transform="matrix(0.05,0,0,0.05,71.85000000000001,0)" xlink:href="#bO"/><use transform="matrix(0.05,0,0,0.05,75.80000000000001,0)" xlink:href="#bJ"/><use transform="matrix(0.05,0,0,0.05,85.80000000000001,0)" xlink:href="#bI"/></g><path d="M68-38c1 34 0 65-14 84H32c9-13 17-26 17-46H33v-38h35" id="ci"/><g id="I"><use transform="matrix(0.05,0,0,0.05,0,0)" xlink:href="#bI"/><use transform="matrix(0.05,0,0,0.05,10,0)" xlink:href="#bL"/><use transform="matrix(0.05,0,0,0.05,20,0)" xlink:href="#bM"/><use transform="matrix(0.05,0,0,0.05,23.95,0)" xlink:href="#bM"/><use transform="matrix(0.05,0,0,0.05,27.899999999999995,0)" xlink:href="#ci"/></g><path d="M145-31C134-9 116 4 85 4 32 4 16-35 15-94c0-59 17-99 70-100 32-1 48 14 60 33 0-11-1-24 2-32h30l-1 268h-32zM93-21c41 0 51-33 51-76s-8-73-50-73c-40 0-46 35-46 75s5 74 45 74" id="cj"/><g id="J"><use transform="matrix(0.05,0,0,0.05,0,0)" xlink:href="#bL"/><use transform="matrix(0.05,0,0,0.05,10,0)" xlink:href="#bI"/><use transform="matrix(0.05,0,0,0.05,20,0)" xlink:href="#bO"/><use transform="matrix(0.05,0,0,0.05,23.95,0)" xlink:href="#cj"/><use transform="matrix(0.05,0,0,0.05,33.95,0)" xlink:href="#bL"/><use transform="matrix(0.05,0,0,0.05,43.95,0)" xlink:href="#bT"/></g><path d="M30-248c87 1 191-15 191 75 0 78-77 80-158 76V0H30v-248zm33 125c57 0 124 11 124-50 0-59-68-47-124-48v98" id="ck"/><g id="K"><use transform="matrix(0.05,0,0,0.05,0,0)" xlink:href="#bU"/><use transform="matrix(0.05,0,0,0.05,9,0)" xlink:href="#bJ"/><use transform="matrix(0.05,0,0,0.05,19,0)" xlink:href="#bR"/><use transform="matrix(0.05,0,0,0.05,29,0)" xlink:href="#ck"/><use transform="matrix(0.05,0,0,0.05,41,0)" xlink:href="#bP"/><use transform="matrix(0.05,0,0,0.05,46.95,0)" xlink:href="#bJ"/><use transform="matrix(0.05,0,0,0.05,56.95,0)" xlink:href="#bR"/><use transform="matrix(0.05,0,0,0.05,66.95,0)" xlink:href="#bL"/><use transform="matrix(0.05,0,0,0.05,76.95,0)" xlink:href="#bU"/><use transform="matrix(0.05,0,0,0.05,85.95,0)" xlink:href="#bK"/></g><g id="L"><use transform="matrix(0.05,0,0,0.05,0,0)" xlink:href="#bO"/><use transform="matrix(0.05,0,0,0.05,3.95,0)" xlink:href="#bI"/><use transform="matrix(0.05,0,0,0.05,13.949999999999998,0)" xlink:href="#bK"/><use transform="matrix(0.05,0,0,0.05,18.95,0)" xlink:href="#bT"/><use transform="matrix(0.05,0,0,0.05,28.950000000000003,0)" xlink:href="#bY"/><use transform="matrix(0.05,0,0,0.05,38.95,0)" xlink:href="#bT"/><use transform="matrix(0.05,0,0,0.05,48.95,0)" xlink:href="#bP"/></g><path d="M143 0L79-87 56-68V0H24v-261h32v163l83-92h37l-77 82L181 0h-38" id="cl"/><path d="M33 0v-248h34V0H33" id="cm"/><g id="M"><use transform="matrix(0.05,0,0,0.05,0,0)" xlink:href="#bM"/><use transform="matrix(0.05,0,0,0.05,3.95,0)" xlink:href="#bO"/><use transform="matrix(0.05,0,0,0.05,7.9,0)" xlink:href="#bI"/><use transform="matrix(0.05,0,0,0.05,17.9,0)" xlink:href="#cl"/><use transform="matrix(0.05,0,0,0.05,26.899999999999995,0)" xlink:href="#cm"/><use transform="matrix(0.05,0,0,0.05,31.899999999999995,0)" xlink:href="#bV"/><use transform="matrix(0.05,0,0,0.05,46.85,0)" xlink:href="#bY"/></g><path d="M54-142c48-35 137-8 131 61C196 18 31 33 14-55l32-4c7 23 22 37 52 37 35-1 51-22 54-58 4-55-73-65-99-34H22l8-134h141v27H59" id="cn"/><path d="M101-251c68 0 85 55 85 127S166 4 100 4C33 4 14-52 14-124c0-73 17-127 87-127zm-1 229c47 0 54-49 54-102s-4-102-53-102c-51 0-55 48-55 102 0 53 5 102 54 102" id="co"/><g id="N"><use transform="matrix(0.05,0,0,0.05,0,0)" xlink:href="#bW"/><use transform="matrix(0.05,0,0,0.05,9,0)" xlink:href="#bS"/><use transform="matrix(0.05,0,0,0.05,19,0)" xlink:href="#bP"/><use transform="matrix(0.05,0,0,0.05,24.95,0)" xlink:href="#bX"/><use transform="matrix(0.05,0,0,0.05,33.95,0)" xlink:href="#bO"/><use transform="matrix(0.05,0,0,0.05,37.900000000000006,0)" xlink:href="#bI"/><use transform="matrix(0.05,0,0,0.05,47.900000000000006,0)" xlink:href="#bY"/><use transform="matrix(0.05,0,0,0.05,57.900000000000006,0)" xlink:href="#bZ"/><use transform="matrix(0.05,0,0,0.05,63.85,0)" xlink:href="#cn"/><use transform="matrix(0.05,0,0,0.05,73.85000000000001,0)" xlink:href="#co"/><use transform="matrix(0.05,0,0,0.05,83.85000000000001,0)" xlink:href="#co"/><use transform="matrix(0.05,0,0,0.05,93.85000000000001,0)" xlink:href="#cb"/></g><g id="O"><use transform="matrix(0.05,0,0,0.05,0,0)" xlink:href="#cj"/><use transform="matrix(0.05,0,0,0.05,10,0)" xlink:href="#bK"/><use transform="matrix(0.05,0,0,0.05,15,0)" xlink:href="#bR"/></g><path d="M115-194c55 1 70 41 70 98S169 2 115 4C84 4 66-9 55-30l1 105H24l-1-265h31l2 30c10-21 28-34 59-34zm-8 174c40 0 45-34 45-75s-6-73-45-74c-42 0-51 32-51 76 0 43 10 73 51 73" id="cp"/><g id="P"><use transform="matrix(0.05,0,0,0.05,0,0)" xlink:href="#cp"/><use transform="matrix(0.05,0,0,0.05,10,0)" xlink:href="#bP"/><use transform="matrix(0.05,0,0,0.05,15.949999999999998,0)" xlink:href="#bO"/><use transform="matrix(0.05,0,0,0.05,19.9,0)" xlink:href="#bU"/><use transform="matrix(0.05,0,0,0.05,28.899999999999995,0)" xlink:href="#bT"/></g><g id="Q"><use transform="matrix(0.05,0,0,0.05,0,0)" xlink:href="#bV"/><use transform="matrix(0.05,0,0,0.05,14.950000000000001,0)" xlink:href="#bJ"/><use transform="matrix(0.05,0,0,0.05,24.950000000000003,0)" xlink:href="#bI"/><use transform="matrix(0.05,0,0,0.05,34.95,0)" xlink:href="#bT"/><use transform="matrix(0.05,0,0,0.05,44.95,0)" xlink:href="#bX"/></g><g id="R"><use transform="matrix(0.05,0,0,0.05,0,0)" xlink:href="#bj"/><use transform="matrix(0.05,0,0,0.05,12.950000000000001,0)" xlink:href="#bt"/><use transform="matrix(0.05,0,0,0.05,22.950000000000003,0)" xlink:href="#bq"/><use transform="matrix(0.05,0,0,0.05,28.900000000000002,0)" xlink:href="#bm"/><use transform="matrix(0.05,0,0,0.05,33.900000000000006,0)" xlink:href="#bl"/></g><g id="S"><use transform="matrix(0.05,0,0,0.05,0,0)" xlink:href="#br"/><use transform="matrix(0.05,0,0,0.05,10,0)" xlink:href="#bq"/><use transform="matrix(0.05,0,0,0.05,15.949999999999998,0)" xlink:href="#bs"/><use transform="matrix(0.05,0,0,0.05,19.9,0)" xlink:href="#bo"/><use transform="matrix(0.05,0,0,0.05,34.85,0)" xlink:href="#bt"/><use transform="matrix(0.05,0,0,0.05,44.85,0)" xlink:href="#bq"/><use transform="matrix(0.05,0,0,0.05,50.800000000000004,0)" xlink:href="#bu"/></g><g id="T"><use transform="matrix(0.05,0,0,0.05,0,0)" xlink:href="#bz"/><use transform="matrix(0.05,0,0,0.05,10,0)" xlink:href="#bn"/><use transform="matrix(0.05,0,0,0.05,20,0)" xlink:href="#bm"/></g><path fill="#333" d="M33 0v-248h34V0H33" id="cq"/><g id="U"><use transform="matrix(0.05,0,0,0.05,0,0)" xlink:href="#cd"/><use transform="matrix(0.05,0,0,0.05,9,0)" xlink:href="#bk"/><use transform="matrix(0.05,0,0,0.05,19,0)" xlink:href="#bl"/><use transform="matrix(0.05,0,0,0.05,28,0)" xlink:href="#bm"/><use transform="matrix(0.05,0,0,0.05,33,0)" xlink:href="#bn"/><use transform="matrix(0.05,0,0,0.05,43,0)" xlink:href="#bo"/><use transform="matrix(0.05,0,0,0.05,57.95,0)" xlink:href="#bp"/><use transform="matrix(0.05,0,0,0.05,67.95,0)" xlink:href="#bq"/><use transform="matrix(0.05,0,0,0.05,73.9,0)" xlink:href="#cq"/><use transform="matrix(0.05,0,0,0.05,78.9,0)" xlink:href="#bw"/></g><g id="V"><use transform="matrix(0.05,0,0,0.05,0,0)" xlink:href="#bs"/><use transform="matrix(0.05,0,0,0.05,3.95,0)" xlink:href="#bz"/><use transform="matrix(0.05,0,0,0.05,13.949999999999998,0)" xlink:href="#bm"/><use transform="matrix(0.05,0,0,0.05,18.95,0)" xlink:href="#bp"/><use transform="matrix(0.05,0,0,0.05,28.950000000000003,0)" xlink:href="#bB"/><use transform="matrix(0.05,0,0,0.05,38.95,0)" xlink:href="#bp"/><use transform="matrix(0.05,0,0,0.05,48.95,0)" xlink:href="#bq"/></g><path fill="#333" d="M233-177c-1 41-23 64-60 70L243 0h-38l-65-103H63V0H30v-248c88 3 205-21 203 71zM63-129c60-2 137 13 137-47 0-61-80-42-137-45v92" id="cr"/><g id="W"><use transform="matrix(0.05,0,0,0.05,0,0)" xlink:href="#cr"/><use transform="matrix(0.05,0,0,0.05,12.950000000000001,0)" xlink:href="#bp"/><use transform="matrix(0.05,0,0,0.05,22.950000000000003,0)" xlink:href="#bB"/><use transform="matrix(0.05,0,0,0.05,32.95,0)" xlink:href="#bs"/><use transform="matrix(0.05,0,0,0.05,36.900000000000006,0)" xlink:href="#bl"/><use transform="matrix(0.05,0,0,0.05,45.900000000000006,0)" xlink:href="#bm"/><use transform="matrix(0.05,0,0,0.05,50.900000000000006,0)" xlink:href="#bq"/><use transform="matrix(0.05,0,0,0.05,56.85,0)" xlink:href="#bt"/><use transform="matrix(0.05,0,0,0.05,66.85000000000001,0)" xlink:href="#bm"/><use transform="matrix(0.05,0,0,0.05,71.85000000000001,0)" xlink:href="#bs"/><use transform="matrix(0.05,0,0,0.05,75.80000000000001,0)" xlink:href="#bn"/><use transform="matrix(0.05,0,0,0.05,85.80000000000001,0)" xlink:href="#bz"/></g><g id="X"><use transform="matrix(0.05,0,0,0.05,0,0)" xlink:href="#bw"/><use transform="matrix(0.05,0,0,0.05,10,0)" xlink:href="#bt"/><use transform="matrix(0.05,0,0,0.05,20,0)" xlink:href="#bm"/><use transform="matrix(0.05,0,0,0.05,25,0)" xlink:href="#bp"/></g><path d="M101-234c-31-9-42 10-38 44h38v23H63V0H32v-167H5v-23h27c-7-52 17-82 69-68v24" id="cs"/><g id="Y"><use transform="matrix(0.05,0,0,0.05,0,0)" xlink:href="#cs"/><use transform="matrix(0.05,0,0,0.05,5,0)" xlink:href="#bJ"/><use transform="matrix(0.05,0,0,0.05,15,0)" xlink:href="#bP"/><use transform="matrix(0.05,0,0,0.05,20.95,0)" xlink:href="#bT"/><use transform="matrix(0.05,0,0,0.05,30.950000000000003,0)" xlink:href="#bO"/><use transform="matrix(0.05,0,0,0.05,34.9,0)" xlink:href="#bY"/><use transform="matrix(0.05,0,0,0.05,44.9,0)" xlink:href="#bI"/></g><g id="Z"><use transform="matrix(0.05,0,0,0.05,0,0)" xlink:href="#cl"/><use transform="matrix(0.05,0,0,0.05,9,0)" xlink:href="#bT"/><use transform="matrix(0.05,0,0,0.05,19,0)" xlink:href="#bX"/></g><g id="aa"><use transform="matrix(0.05,0,0,0.05,0,0)" xlink:href="#bU"/><use transform="matrix(0.05,0,0,0.05,9,0)" xlink:href="#bJ"/><use transform="matrix(0.05,0,0,0.05,19,0)" xlink:href="#ch"/><use transform="matrix(0.05,0,0,0.05,28,0)" xlink:href="#bK"/><use transform="matrix(0.05,0,0,0.05,33,0)" xlink:href="#bL"/><use transform="matrix(0.05,0,0,0.05,43,0)" xlink:href="#bV"/><use transform="matrix(0.05,0,0,0.05,57.95,0)" xlink:href="#bT"/><use transform="matrix(0.05,0,0,0.05,67.95,0)" xlink:href="#bP"/><use transform="matrix(0.05,0,0,0.05,73.9,0)" xlink:href="#cm"/><use transform="matrix(0.05,0,0,0.05,78.9,0)" xlink:href="#bR"/></g><g id="ab"><use transform="matrix(0.05,0,0,0.05,0,0)" xlink:href="#cg"/><use transform="matrix(0.05,0,0,0.05,12.950000000000001,0)" xlink:href="#bT"/><use transform="matrix(0.05,0,0,0.05,22.950000000000003,0)" xlink:href="#cs"/><use transform="matrix(0.05,0,0,0.05,27.950000000000003,0)" xlink:href="#bT"/><use transform="matrix(0.05,0,0,0.05,37.95,0)" xlink:href="#bP"/><use transform="matrix(0.05,0,0,0.05,43.900000000000006,0)" xlink:href="#bT"/><use transform="matrix(0.05,0,0,0.05,53.900000000000006,0)" xlink:href="#bI"/><use transform="matrix(0.05,0,0,0.05,63.900000000000006,0)" xlink:href="#bU"/><use transform="matrix(0.05,0,0,0.05,72.9,0)" xlink:href="#bT"/><use transform="matrix(0.05,0,0,0.05,82.9,0)" xlink:href="#ch"/></g><path d="M212-179c-10-28-35-45-73-45-59 0-87 40-87 99 0 60 29 101 89 101 43 0 62-24 78-52l27 14C228-24 195 4 139 4 59 4 22-46 18-125c-6-104 99-153 187-111 19 9 31 26 39 46" id="ct"/><g id="ac"><use transform="matrix(0.05,0,0,0.05,0,0)" xlink:href="#ct"/><use transform="matrix(0.05,0,0,0.05,12.950000000000001,0)" xlink:href="#bL"/><use transform="matrix(0.05,0,0,0.05,22.950000000000003,0)" xlink:href="#ch"/><use transform="matrix(0.05,0,0,0.05,31.950000000000003,0)" xlink:href="#bK"/><use transform="matrix(0.05,0,0,0.05,36.95,0)" xlink:href="#bJ"/><use transform="matrix(0.05,0,0,0.05,46.95,0)" xlink:href="#bV"/><use transform="matrix(0.05,0,0,0.05,61.900000000000006,0)" xlink:href="#bT"/><use transform="matrix(0.05,0,0,0.05,71.9,0)" xlink:href="#bP"/><use transform="matrix(0.05,0,0,0.05,77.85000000000001,0)" xlink:href="#ch"/><use transform="matrix(0.05,0,0,0.05,86.85000000000001,0)" xlink:href="#bZ"/><use transform="matrix(0.05,0,0,0.05,92.80000000000001,0)" xlink:href="#bO"/><use transform="matrix(0.05,0,0,0.05,96.75000000000001,0)" xlink:href="#bR"/><use transform="matrix(0.05,0,0,0.05,106.75,0)" xlink:href="#cb"/></g><g id="ad"><use transform="matrix(0.05,0,0,0.05,0,0)" xlink:href="#cp"/><use transform="matrix(0.05,0,0,0.05,10,0)" xlink:href="#bP"/><use transform="matrix(0.05,0,0,0.05,15.949999999999998,0)" xlink:href="#bJ"/><use transform="matrix(0.05,0,0,0.05,25.950000000000003,0)" xlink:href="#bR"/><use transform="matrix(0.05,0,0,0.05,35.95,0)" xlink:href="#bL"/><use transform="matrix(0.05,0,0,0.05,45.95,0)" xlink:href="#bU"/><use transform="matrix(0.05,0,0,0.05,54.95,0)" xlink:href="#bK"/><use transform="matrix(0.05,0,0,0.05,59.95,0)" xlink:href="#cm"/><use transform="matrix(0.05,0,0,0.05,64.95,0)" xlink:href="#bR"/></g><g id="ae"><use transform="matrix(0.05,0,0,0.05,0,0)" xlink:href="#ck"/><use transform="matrix(0.05,0,0,0.05,12,0)" xlink:href="#bP"/><use transform="matrix(0.05,0,0,0.05,17.95,0)" xlink:href="#bJ"/><use transform="matrix(0.05,0,0,0.05,27.950000000000003,0)" xlink:href="#bR"/><use transform="matrix(0.05,0,0,0.05,37.95,0)" xlink:href="#bL"/><use transform="matrix(0.05,0,0,0.05,47.95,0)" xlink:href="#bU"/><use transform="matrix(0.05,0,0,0.05,56.95,0)" xlink:href="#bK"/><use transform="matrix(0.05,0,0,0.05,61.95,0)" xlink:href="#ch"/><use transform="matrix(0.05,0,0,0.05,70.95,0)" xlink:href="#bZ"/><use transform="matrix(0.05,0,0,0.05,76.9,0)" xlink:href="#bO"/><use transform="matrix(0.05,0,0,0.05,80.85000000000001,0)" xlink:href="#bR"/><use transform="matrix(0.05,0,0,0.05,90.85000000000001,0)" xlink:href="#cb"/></g><path fill="#333" d="M140-251c81 0 123 46 123 126C263-46 219 4 140 4 59 4 17-45 17-125s42-126 123-126zm0 227c63 0 89-41 89-101s-29-99-89-99c-61 0-89 39-89 99S79-25 140-24" id="cu"/><g id="af"><use transform="matrix(0.05,0,0,0.05,0,0)" xlink:href="#cu"/><use transform="matrix(0.05,0,0,0.05,14,0)" xlink:href="#bq"/><use transform="matrix(0.05,0,0,0.05,19.95,0)" xlink:href="#bw"/><use transform="matrix(0.05,0,0,0.05,29.950000000000003,0)" xlink:href="#bp"/><use transform="matrix(0.05,0,0,0.05,39.95,0)" xlink:href="#bq"/><use transform="matrix(0.05,0,0,0.05,45.900000000000006,0)" xlink:href="#bl"/></g><g id="ag"><use transform="matrix(0.05,0,0,0.05,0,0)" xlink:href="#br"/><use transform="matrix(0.05,0,0,0.05,10,0)" xlink:href="#bq"/><use transform="matrix(0.05,0,0,0.05,15.949999999999998,0)" xlink:href="#bn"/><use transform="matrix(0.05,0,0,0.05,25.950000000000003,0)" xlink:href="#bw"/><use transform="matrix(0.05,0,0,0.05,35.95,0)" xlink:href="#bk"/><use transform="matrix(0.05,0,0,0.05,45.95,0)" xlink:href="#cd"/><use transform="matrix(0.05,0,0,0.05,54.95,0)" xlink:href="#bm"/><use transform="matrix(0.05,0,0,0.05,59.95,0)" xlink:href="#cq"/><use transform="matrix(0.05,0,0,0.05,64.95,0)" xlink:href="#bw"/></g><g id="ah"><use transform="matrix(0.05,0,0,0.05,0,0)" xlink:href="#bP"/><use transform="matrix(0.05,0,0,0.05,5.95,0)" xlink:href="#bT"/><use transform="matrix(0.05,0,0,0.05,15.949999999999998,0)" xlink:href="#bY"/><use transform="matrix(0.05,0,0,0.05,25.950000000000003,0)" xlink:href="#bO"/><use transform="matrix(0.05,0,0,0.05,29.899999999999995,0)" xlink:href="#ch"/><use transform="matrix(0.05,0,0,0.05,38.9,0)" xlink:href="#bK"/><use transform="matrix(0.05,0,0,0.05,43.9,0)" xlink:href="#bP"/><use transform="matrix(0.05,0,0,0.05,49.85,0)" xlink:href="#bS"/><use transform="matrix(0.05,0,0,0.05,59.85,0)" xlink:href="#bK"/><use transform="matrix(0.05,0,0,0.05,64.85,0)" xlink:href="#bO"/><use transform="matrix(0.05,0,0,0.05,68.8,0)" xlink:href="#bJ"/><use transform="matrix(0.05,0,0,0.05,78.8,0)" xlink:href="#bI"/></g><path d="M185-189c-5-48-123-54-124 2 14 75 158 14 163 119 3 78-121 87-175 55-17-10-28-26-33-46l33-7c5 56 141 63 141-1 0-78-155-14-162-118-5-82 145-84 179-34 5 7 8 16 11 25" id="cv"/><g id="ai"><use transform="matrix(0.05,0,0,0.05,0,0)" xlink:href="#bJ"/><use transform="matrix(0.05,0,0,0.05,10,0)" xlink:href="#bP"/><use transform="matrix(0.05,0,0,0.05,15.949999999999998,0)" xlink:href="#bR"/><use transform="matrix(0.05,0,0,0.05,25.950000000000003,0)" xlink:href="#bT"/><use transform="matrix(0.05,0,0,0.05,35.95,0)" xlink:href="#bP"/><use transform="matrix(0.05,0,0,0.05,41.900000000000006,0)" xlink:href="#cv"/><use transform="matrix(0.05,0,0,0.05,53.900000000000006,0)" xlink:href="#bK"/><use transform="matrix(0.05,0,0,0.05,58.900000000000006,0)" xlink:href="#bS"/><use transform="matrix(0.05,0,0,0.05,68.9,0)" xlink:href="#bK"/><use transform="matrix(0.05,0,0,0.05,73.9,0)" xlink:href="#bL"/><use transform="matrix(0.05,0,0,0.05,83.9,0)" xlink:href="#ch"/></g><path d="M101-251c82-7 93 87 43 132L82-64C71-53 59-42 53-27h129V0H18c2-99 128-94 128-182 0-28-16-43-45-43s-46 15-49 41l-32-3c6-41 34-60 81-64" id="cw"/><g id="aj"><use transform="matrix(0.05,0,0,0.05,0,0)" xlink:href="#bW"/><use transform="matrix(0.05,0,0,0.05,9,0)" xlink:href="#bS"/><use transform="matrix(0.05,0,0,0.05,19,0)" xlink:href="#bP"/><use transform="matrix(0.05,0,0,0.05,24.95,0)" xlink:href="#bX"/><use transform="matrix(0.05,0,0,0.05,33.95,0)" xlink:href="#bO"/><use transform="matrix(0.05,0,0,0.05,37.900000000000006,0)" xlink:href="#bI"/><use transform="matrix(0.05,0,0,0.05,47.900000000000006,0)" xlink:href="#bY"/><use transform="matrix(0.05,0,0,0.05,57.900000000000006,0)" xlink:href="#bZ"/><use transform="matrix(0.05,0,0,0.05,63.85,0)" xlink:href="#cw"/><use transform="matrix(0.05,0,0,0.05,73.85000000000001,0)" xlink:href="#co"/><use transform="matrix(0.05,0,0,0.05,83.85000000000001,0)" xlink:href="#co"/><use transform="matrix(0.05,0,0,0.05,93.85000000000001,0)" xlink:href="#cb"/></g><g id="ak"><use transform="matrix(0.05,0,0,0.05,0,0)" xlink:href="#cs"/><use transform="matrix(0.05,0,0,0.05,5,0)" xlink:href="#bJ"/><use transform="matrix(0.05,0,0,0.05,15,0)" xlink:href="#bP"/><use transform="matrix(0.05,0,0,0.05,20.95,0)" xlink:href="#bT"/><use transform="matrix(0.05,0,0,0.05,30.950000000000003,0)" xlink:href="#bO"/><use transform="matrix(0.05,0,0,0.05,34.9,0)" xlink:href="#bY"/><use transform="matrix(0.05,0,0,0.05,44.9,0)" xlink:href="#bI"/></g><g id="al"><use transform="matrix(0.05,0,0,0.05,0,0)" xlink:href="#bU"/><use transform="matrix(0.05,0,0,0.05,9,0)" xlink:href="#bL"/><use transform="matrix(0.05,0,0,0.05,19,0)" xlink:href="#ch"/><use transform="matrix(0.05,0,0,0.05,28,0)" xlink:href="#bK"/><use transform="matrix(0.05,0,0,0.05,33,0)" xlink:href="#bJ"/><use transform="matrix(0.05,0,0,0.05,43,0)" xlink:href="#bV"/><use transform="matrix(0.05,0,0,0.05,57.95,0)" xlink:href="#bT"/><use transform="matrix(0.05,0,0,0.05,67.95,0)" xlink:href="#bP"/><use transform="matrix(0.05,0,0,0.05,73.9,0)" xlink:href="#cm"/><use transform="matrix(0.05,0,0,0.05,78.9,0)" xlink:href="#bR"/></g><path fill="#333" d="M205 0l-28-72H64L36 0H1l101-248h38L239 0h-34zm-38-99l-47-123c-12 45-31 82-46 123h93" id="cx"/><path fill="#333" d="M106-169C34-169 62-67 57 0H25v-261h32l-1 103c12-21 28-36 61-36 89 0 53 116 60 194h-32v-121c2-32-8-49-39-48" id="cy"/><g id="am"><use transform="matrix(0.05,0,0,0.05,0,0)" xlink:href="#cx"/><use transform="matrix(0.05,0,0,0.05,12,0)" xlink:href="#bk"/><use transform="matrix(0.05,0,0,0.05,22,0)" xlink:href="#bm"/><use transform="matrix(0.05,0,0,0.05,27,0)" xlink:href="#cy"/></g><path fill="#333" d="M68-38c1 34 0 65-14 84H32c9-13 17-26 17-46H33v-38h35" id="cz"/><g id="an"><use transform="matrix(0.05,0,0,0.05,0,0)" xlink:href="#bz"/><use transform="matrix(0.05,0,0,0.05,10,0)" xlink:href="#bk"/><use transform="matrix(0.05,0,0,0.05,20,0)" xlink:href="#by"/><use transform="matrix(0.05,0,0,0.05,23.95,0)" xlink:href="#by"/><use transform="matrix(0.05,0,0,0.05,27.899999999999995,0)" xlink:href="#cz"/></g><path fill="#333" d="M145-31C134-9 116 4 85 4 32 4 16-35 15-94c0-59 17-99 70-100 32-1 48 14 60 33 0-11-1-24 2-32h30l-1 268h-32zM93-21c41 0 51-33 51-76s-8-73-50-73c-40 0-46 35-46 75s5 74 45 74" id="cA"/><g id="ao"><use transform="matrix(0.05,0,0,0.05,0,0)" xlink:href="#bk"/><use transform="matrix(0.05,0,0,0.05,10,0)" xlink:href="#bz"/><use transform="matrix(0.05,0,0,0.05,20,0)" xlink:href="#bs"/><use transform="matrix(0.05,0,0,0.05,23.95,0)" xlink:href="#cA"/><use transform="matrix(0.05,0,0,0.05,33.95,0)" xlink:href="#bk"/><use transform="matrix(0.05,0,0,0.05,43.95,0)" xlink:href="#bp"/></g><g id="ap"><use transform="matrix(0.05,0,0,0.05,0,0)" xlink:href="#by"/><use transform="matrix(0.05,0,0,0.05,3.95,0)" xlink:href="#bn"/><use transform="matrix(0.05,0,0,0.05,13.949999999999998,0)" xlink:href="#bB"/><use transform="matrix(0.05,0,0,0.05,23.95,0)" xlink:href="#bs"/><use transform="matrix(0.05,0,0,0.05,27.899999999999995,0)" xlink:href="#bz"/><use transform="matrix(0.05,0,0,0.05,37.9,0)" xlink:href="#bz"/><use transform="matrix(0.05,0,0,0.05,47.9,0)" xlink:href="#bt"/><use transform="matrix(0.05,0,0,0.05,57.900000000000006,0)" xlink:href="#bo"/><use transform="matrix(0.05,0,0,0.05,72.85,0)" xlink:href="#bp"/></g><path fill="#333" d="M206 0h-36l-40-164L89 0H53L-1-190h32L70-26l43-164h34l41 164 42-164h31" id="cB"/><g id="aq"><use transform="matrix(0.05,0,0,0.05,0,0)" xlink:href="#br"/><use transform="matrix(0.05,0,0,0.05,10,0)" xlink:href="#bt"/><use transform="matrix(0.05,0,0,0.05,20,0)" xlink:href="#bl"/><use transform="matrix(0.05,0,0,0.05,29,0)" xlink:href="#bl"/><use transform="matrix(0.05,0,0,0.05,38,0)" xlink:href="#cB"/><use transform="matrix(0.05,0,0,0.05,50.95,0)" xlink:href="#bn"/><use transform="matrix(0.05,0,0,0.05,60.95,0)" xlink:href="#bq"/><use transform="matrix(0.05,0,0,0.05,66.9,0)" xlink:href="#bw"/></g><g id="ar"><use transform="matrix(0.05,0,0,0.05,0,0)" xlink:href="#bA"/><use transform="matrix(0.05,0,0,0.05,9,0)" xlink:href="#bt"/><use transform="matrix(0.05,0,0,0.05,19,0)" xlink:href="#bq"/><use transform="matrix(0.05,0,0,0.05,24.95,0)" xlink:href="#bu"/><use transform="matrix(0.05,0,0,0.05,33.95,0)" xlink:href="#bs"/><use transform="matrix(0.05,0,0,0.05,37.900000000000006,0)" xlink:href="#bz"/><use transform="matrix(0.05,0,0,0.05,47.900000000000006,0)" xlink:href="#bB"/><use transform="matrix(0.05,0,0,0.05,57.900000000000006,0)" xlink:href="#bC"/><use transform="matrix(0.05,0,0,0.05,63.85,0)" xlink:href="#ce"/><use transform="matrix(0.05,0,0,0.05,73.85000000000001,0)" xlink:href="#bE"/><use transform="matrix(0.05,0,0,0.05,83.85000000000001,0)" xlink:href="#bF"/></g><g id="as"><use transform="matrix(0.05,0,0,0.05,0,0)" xlink:href="#cs"/><use transform="matrix(0.05,0,0,0.05,5,0)" xlink:href="#bL"/><use transform="matrix(0.05,0,0,0.05,15,0)" xlink:href="#bM"/><use transform="matrix(0.05,0,0,0.05,18.95,0)" xlink:href="#bM"/><use transform="matrix(0.05,0,0,0.05,22.9,0)" xlink:href="#bI"/><use transform="matrix(0.05,0,0,0.05,32.9,0)" xlink:href="#bS"/><use transform="matrix(0.05,0,0,0.05,42.9,0)" xlink:href="#bV"/><use transform="matrix(0.05,0,0,0.05,57.85,0)" xlink:href="#bT"/></g><g id="at"><use transform="matrix(0.05,0,0,0.05,0,0)" xlink:href="#bK"/><use transform="matrix(0.05,0,0,0.05,5,0)" xlink:href="#bJ"/><use transform="matrix(0.05,0,0,0.05,15,0)" xlink:href="#cl"/><use transform="matrix(0.05,0,0,0.05,24,0)" xlink:href="#bT"/><use transform="matrix(0.05,0,0,0.05,34,0)" xlink:href="#bI"/></g><g id="au"><use transform="matrix(0.05,0,0,0.05,0,0)" xlink:href="#bM"/><use transform="matrix(0.05,0,0,0.05,3.95,0)" xlink:href="#bS"/><use transform="matrix(0.05,0,0,0.05,13.949999999999998,0)" xlink:href="#ch"/><use transform="matrix(0.05,0,0,0.05,22.95,0)" xlink:href="#bK"/><use transform="matrix(0.05,0,0,0.05,27.950000000000003,0)" xlink:href="#cg"/><use transform="matrix(0.05,0,0,0.05,40.9,0)" xlink:href="#bT"/><use transform="matrix(0.05,0,0,0.05,50.9,0)" xlink:href="#cj"/><use transform="matrix(0.05,0,0,0.05,60.900000000000006,0)" xlink:href="#bL"/><use transform="matrix(0.05,0,0,0.05,70.9,0)" xlink:href="#bT"/><use transform="matrix(0.05,0,0,0.05,80.9,0)" xlink:href="#ch"/><use transform="matrix(0.05,0,0,0.05,89.9,0)" xlink:href="#bK"/></g><g id="av"><use transform="matrix(0.05,0,0,0.05,0,0)" xlink:href="#bN"/><use transform="matrix(0.05,0,0,0.05,10,0)" xlink:href="#bO"/><use transform="matrix(0.05,0,0,0.05,13.949999999999998,0)" xlink:href="#bY"/><use transform="matrix(0.05,0,0,0.05,23.95,0)" xlink:href="#bO"/><use transform="matrix(0.05,0,0,0.05,27.899999999999995,0)" xlink:href="#bI"/><use transform="matrix(0.05,0,0,0.05,37.9,0)" xlink:href="#bK"/></g></defs></g></svg>